<svg xmlns="http://www.w3.org/2000/svg" viewBox="0 0 16 10.67">
    <path d="M14,9.81H2l-.22,0-.94.79a1.35,1.35,0,0,0,.5.1H14.67a1.32,1.32,0,0,0,.53-.11l-.94-.79A.73.73,0,0,1,14,9.81Z"/>
    <path d="M14.92,8.9h0l1,.84a1.34,1.34,0,0,0,.06-.4V1.51l-1.08.9Z"/>
    <path d="M2,.85H14a.9.9,0,0,1,.68.32L15.62.4a1.3,1.3,0,0,0-.95-.4H1.33A1.33,1.33,0,0,0,.4.38l.92.77A.93.93,0,0,1,2,.85Z"/>
    <path d="M1.08,8.9V2.37L0,1.48V9.34a1.55,1.55,0,0,0,.07.43l1-.84Z"/>
    <path d="M5.06,5.65h0a4.19,4.19,0,0,0,.82.52h0l.28.13a4.79,4.79,0,0,0,3.68,0h0l.29-.13h0A4.19,4.19,0,0,0,11,5.65l.09-.06,3.85-3.18V1.77a.91.91,0,0,0-.23-.6L10.76,4.43a4.3,4.3,0,0,1-5.47,0l-4-3.28a.9.9,0,0,0-.24.62v.6L5,5.59Z"/>
    <path d="M1.08,1.77a.9.9,0,0,1,.24-.62L.4.38a1.31,1.31,0,0,0-.4,1v.15l1.08.89Z"/>
    <path d="M14.92,1.77v.64L16,1.51V1.33A1.31,1.31,0,0,0,15.62.4l-.93.77A.91.91,0,0,1,14.92,1.77Z"/>
    <path d="M6.18,6.31h0L5.9,6.18h0a4.19,4.19,0,0,1-.82-.52L5,5.72,1.08,8.93a.91.91,0,0,0,.69.85l3.52-2.9A4.47,4.47,0,0,1,6.18,6.31Z"/>
    <path d="M1.08,8.93l-1,.84a1.36,1.36,0,0,0,.76.8l.94-.79A.91.91,0,0,1,1.08,8.93Z"/>
    <path d="M5.06,5.65a4.19,4.19,0,0,0,.82.52,4.19,4.19,0,0,1-.82-.52Z"/>
    <path d="M6.18,6.31,5.9,6.18Z"/>
    <path d="M11,5.65h0a4.19,4.19,0,0,1-.82.52h0l-.29.13a4.54,4.54,0,0,1,.9.57l3.5,2.89a.89.89,0,0,0,.66-.87L11.07,5.72Z"/>
    <path d="M15.94,9.74l-1-.84a.89.89,0,0,1-.66.87l.94.79A1.36,1.36,0,0,0,15.94,9.74Z"/>
    <path d="M11,5.65a4.19,4.19,0,0,1-.82.52A4.19,4.19,0,0,0,11,5.65Z"/>
    <path d="M9.86,6.31l.29-.13-.29.13Z"/>
</svg>