<svg xmlns="http://www.w3.org/2000/svg" viewBox="0 0 16 16">
    <path class="cls-1" d="M12.71,0H3.29A3.29,3.29,0,0,0,0,3.29v9.42A3.29,3.29,0,0,0,3.29,16h9.42A3.29,3.29,0,0,0,16,12.71V3.29A3.29,3.29,0,0,0,12.71,0Zm2.44,12.39a2.75,2.75,0,0,1-2.76,2.76H3.61A2.75,2.75,0,0,1,.85,12.39V3.61A2.75,2.75,0,0,1,3.61.85h8.78a2.75,2.75,0,0,1,2.76,2.76Z"/>
    <rect class="cls-1" x="2.69" y="6.23" width="2.12" height="7.5"/>
    <circle class="cls-1" cx="3.75" cy="3.61" r="1.42"/>
    <path class="cls-1" d="M8.85,6.9a2.49,2.49,0,0,0-.21.27V6.23H6.51v7.5H8.64V9.39a1.49,1.49,0,0,1,3,0v4.31h2.12V8.87a2.8,2.8,0,0,0-.3-1.28l-.06-.12A2.81,2.81,0,0,0,8.85,6.9Z"/>
</svg>